<?xml version="1.0" encoding="utf-8"?>
<!-- Generator: Adobe Illustrator 16.0.0, SVG Export Plug-In . SVG Version: 6.00 Build 0)  -->
<!DOCTYPE svg PUBLIC "-//W3C//DTD SVG 1.1//EN" "http://www.w3.org/Graphics/SVG/1.1/DTD/svg11.dtd">
<svg version="1.1" id="圖層_1" xmlns="http://www.w3.org/2000/svg" xmlns:xlink="http://www.w3.org/1999/xlink" x="0px" y="0px"
	 width="224px" height="344.166px" viewBox="0 0 224 344.166" enable-background="new 0 0 224 344.166" xml:space="preserve">
<path id="digital2" fill="#FF0000" stroke="#FFFFFF" stroke-miterlimit="10" d="M194.667,13.903c0,7.732-6.755,14-15.086,14H43.086
	c-8.332,0-15.086-6.268-15.086-14l0,0c0-7.732,6.754-14,15.086-14h136.495C187.912-0.097,194.667,6.171,194.667,13.903
	L194.667,13.903z"/>
<path id="digital1" fill="#FF0000" stroke="#FFFFFF" stroke-miterlimit="10" d="M14.278,12.249c7.732,0,14,6.269,14,14v126.667
	c0,7.732-6.268,14-14,14l0,0c-7.732,0-14-6.268-14-14V26.249C0.278,18.518,6.546,12.249,14.278,12.249L14.278,12.249z"/>
<path id="digital4" fill="#FF0000" stroke="#FFFFFF" stroke-miterlimit="10" d="M194.667,172.463c0,7.731-6.755,14-15.086,14H43.086
	c-8.332,0-15.086-6.269-15.086-14l0,0c0-7.732,6.754-14,15.086-14h136.495C187.912,158.463,194.667,164.73,194.667,172.463
	L194.667,172.463z"/>
<path id="digital7" fill="#FF0000" stroke="#FFFFFF" stroke-miterlimit="10" d="M194.667,331.022c0,7.731-6.755,14-15.086,14H43.086
	c-8.332,0-15.086-6.269-15.086-14l0,0c0-7.731,6.754-14,15.086-14h136.495C187.912,317.022,194.667,323.291,194.667,331.022
	L194.667,331.022z"/>
<path id="digital5" fill="#FF0000" stroke="#FFFFFF" stroke-miterlimit="10" d="M14.778,176.249c7.732,0,14,6.269,14,14v126.667
	c0,7.732-6.268,14-14,14l0,0c-7.732,0-14-6.268-14-14V190.249C0.778,182.518,7.046,176.249,14.778,176.249L14.778,176.249z"/>
<path id="digital3" fill="#FF0000" stroke="#FFFFFF" stroke-miterlimit="10" d="M209.779,12.249c7.731,0,14,6.269,14,14v126.667
	c0,7.732-6.269,14-14,14l0,0c-7.732,0-14-6.268-14-14V26.249C195.779,18.518,202.046,12.249,209.779,12.249L209.779,12.249z"/>
<path id="digital6" fill="#FF0000" stroke="#FFFFFF" stroke-miterlimit="10" d="M210.279,176.249c7.731,0,14,6.269,14,14v126.667
	c0,7.732-6.269,14-14,14l0,0c-7.732,0-14-6.268-14-14V190.249C196.279,182.518,202.546,176.249,210.279,176.249L210.279,176.249z"/>
<circle id="c2" fill="#FF0000" stroke="#FFFFFF" stroke-miterlimit="10" cx="113.583" cy="99" r="20.5"/>
<circle id="c1" fill="#FF0000" stroke="#FFFFFF" stroke-miterlimit="10" cx="113.583" cy="253.5" r="20.5"/>
</svg>
